<?xml version="1.0" encoding="UTF-8" standalone="no"?>
<!DOCTYPE svg PUBLIC "-//W3C//DTD SVG 1.1//EN" "http://www.w3.org/Graphics/SVG/1.1/DTD/svg11.dtd">
<svg width="100%" height="100%" viewBox="0 0 776 760" version="1.1" xmlns="http://www.w3.org/2000/svg" xmlns:xlink="http://www.w3.org/1999/xlink" xml:space="preserve" xmlns:serif="http://www.serif.com/" style="fill-rule:evenodd;clip-rule:evenodd;stroke-linecap:round;stroke-linejoin:round;stroke-miterlimit:2;">
    <g transform="matrix(1,0,0,1,-66.6982,-145.174)">
        <g transform="matrix(2.96266,0,0,2.96266,75.2746,152.16)">
            <path d="M208.686,199.827L118.979,199.767C118.979,199.767 99.165,175.866 103.729,143.43C103.729,143.43 106.164,122.134 115.669,109.582L2.638,85.405L121.484,101.895C121.484,101.895 141.359,67.693 196.355,71.902L250.298,3.175L206.314,74.662C206.314,74.662 236.381,83.067 249.68,104.611L249.68,181.26C249.68,181.26 247.841,195.794 231.777,199.9L253.336,248.463L226.412,199.9L208.686,199.827Z" style="fill:white;fill-rule:nonzero;"/>
        </g>
        <g transform="matrix(2.96266,0,0,2.96266,75.2746,152.16)">
            <path d="M208.686,199.827L118.979,199.767C118.979,199.767 99.165,175.866 103.729,143.43C103.729,143.43 106.164,122.134 115.669,109.582L2.638,85.405L121.485,101.895C121.485,101.895 141.359,67.693 196.355,71.902L250.298,3.175L206.314,74.662C206.314,74.662 236.381,83.067 249.68,104.611L249.68,181.26C249.68,181.26 247.841,195.794 231.777,199.9L253.336,248.463L226.412,199.9L208.686,199.827Z" style="fill:none;stroke:white;stroke-width:11.07px;"/>
        </g>
        <g transform="matrix(2.96266,0,0,2.96266,75.2746,152.16)">
            <path d="M175.981,199.899L166.52,199.9C166.52,199.9 167.797,135.01 168.028,129.447C168.078,128.237 167.468,128.211 166.629,128.37C165.676,128.551 164.568,129.913 164.525,130.901C164.521,131.023 164.524,131.144 164.522,131.266C164.495,133.935 164.487,133.991 161.87,133.594C160.677,133.413 159.486,133.246 158.289,133.097C156.672,132.894 156.32,132.457 156.317,130.788C156.313,127.635 156.371,124.481 156.332,121.329C156.313,119.862 156.697,118.917 158.213,118.278C161.385,116.936 164.585,115.902 168.062,115.878C169.076,115.871 169.568,116.322 170.23,117.153C172.58,120.11 175.04,123.092 179.335,123.173C180.693,123.199 180.84,124.353 181.188,125.23C181.52,126.061 180.854,126.433 180.188,126.736C178.751,127.389 177.673,128.74 175.937,128.838C175.354,128.872 175.561,129.471 175.559,129.832" style="fill:rgb(8,91,151);fill-rule:nonzero;"/>
        </g>
        <g transform="matrix(2.96266,0,0,2.96266,75.2746,152.16)">
            <path d="M205.948,140.889C204.515,136.663 202.095,133.494 198.233,131.322C195.844,129.98 193.779,128.18 191.745,126.359C189.001,123.903 187.298,120.722 185.593,117.531C185.149,116.702 185.059,116.091 185.467,115.172C186.728,112.335 186.188,109.889 184.172,108.166C182.118,106.409 178.231,106.44 176.372,107.275C175.701,107.577 175.613,107.939 175.964,108.571C176.398,109.356 176.233,109.756 175.229,109.508C174.647,109.362 174.039,109.325 173.443,109.237C168.712,108.543 4.688,85.378 2.638,85.405C4.645,86.123 138.619,114.394 145.913,116.034C148.213,116.553 150.526,117.212 152.924,116.519C155.092,115.894 157.109,114.884 159.209,114.086C162.003,113.023 164.874,112.215 167.866,112.232C170.067,112.245 172.262,112.656 174.428,113.109C174.754,113.178 175.276,112.949 175.367,113.382C175.456,113.805 174.97,114.06 174.649,114.266C173.559,114.968 173.381,115.937 174.273,116.939C175.224,118.004 176.362,118.828 177.759,119.207C179.134,119.578 180.532,119.935 181.653,118.331C182.64,120.214 253.052,248.625 253.336,248.463C253.493,248.373 208.196,147.519 205.948,140.889Z" style="fill:rgb(8,91,151);fill-rule:nonzero;"/>
        </g>
        <g transform="matrix(2.96266,0,0,2.96266,75.2746,152.16)">
            <path d="M190.058,79.672C188.653,81.315 187.396,83.025 187.362,85.323C187.349,86.251 187.296,87.179 187.27,88.109C187.128,93.05 186.582,97.912 184.388,102.436C183.96,103.32 183.307,104.176 184.997,104.371C185.215,104.395 185.417,104.593 185.619,104.721C187.053,105.629 187.078,105.646 187.971,104.209C193.816,94.802 249.831,4.652 250.298,3.175C249.283,4.163 197.319,71.187 190.058,79.672Z" style="fill:rgb(8,91,151);fill-rule:nonzero;"/>
        </g>
        <g transform="matrix(2.96266,0,0,2.96266,75.2746,152.16)">
            <path d="M241.534,119.451C240.593,125.056 239.332,130.666 237.798,136.213C237.209,138.35 236.529,140.459 235.94,142.594C235.712,143.42 235.329,143.568 234.527,143.32C224.619,140.259 214.85,136.809 205.285,132.802C203.136,131.902 201.463,130.154 199.54,128.84C197.302,127.311 197.393,127.241 198.503,124.711C200.886,119.283 203.239,113.84 205.59,108.397C206.213,106.955 206.237,106.948 207.695,107.564C217.514,111.711 227.546,115.233 237.872,117.892C238.885,118.151 239.914,118.347 240.929,118.602C241.303,118.696 241.786,118.769 241.534,119.451Z" style="fill:rgb(183,202,223);fill-rule:nonzero;"/>
        </g>
        <g transform="matrix(2.96266,0,0,2.96266,75.2746,152.16)">
            <path d="M163.788,176.759C163.556,181.154 163.644,185.561 163.45,189.952C163.355,192.109 163.691,194.391 162.468,196.459C162.041,197.178 161.777,197.259 161.12,196.976C154.297,194.041 147.334,191.479 140.257,189.234C136.188,187.944 132.099,186.71 127.899,185.91C126.766,185.693 126.571,185.242 126.77,184.107C128.076,176.64 129.966,169.321 132.176,162.076C132.414,161.293 132.652,161.139 133.431,161.378C143.346,164.419 153.077,167.971 162.711,171.801C163.561,172.14 163.886,172.569 163.809,173.486C163.719,174.569 163.788,175.667 163.788,176.759Z" style="fill:rgb(183,202,223);fill-rule:nonzero;"/>
        </g>
        <g transform="matrix(2.96266,0,0,2.96266,75.2746,152.16)">
            <path d="M103.34,148.567C103.691,139.9 105.565,131.334 108.73,123.035C108.979,122.386 109.295,122.315 109.923,122.589C116.605,125.516 123.303,128.409 129.994,131.318C132.175,132.267 134.332,133.274 136.536,134.167C137.313,134.482 137.382,134.799 137.082,135.518C134.49,141.727 132.037,147.995 129.94,154.393C129.646,155.292 129.227,155.503 128.339,155.253C123.655,153.929 118.919,152.785 114.106,152.071C110.781,151.576 107.437,150.92 104.034,151.431C103.477,151.514 103.325,151.218 103.337,150.727C103.35,150.082 103.34,149.436 103.34,148.567Z" style="fill:rgb(183,202,223);fill-rule:nonzero;"/>
        </g>
        <g transform="matrix(2.96266,0,0,2.96266,75.2746,152.16)">
            <path d="M242.646,106.768C242.638,108.822 242.612,110.875 242.421,112.929C242.321,113.988 241.983,114.253 240.979,114.011C235.375,112.658 229.869,110.98 224.408,109.139C219.438,107.461 214.574,105.515 209.709,103.568C208.026,102.895 207.999,102.865 208.734,101.17C211.578,94.622 214.429,88.08 217.309,81.548C218.36,79.163 218.402,79.175 220.732,80.354C226.52,83.279 231.702,87.072 236.804,91.062C241.379,94.639 242.589,99.352 242.645,104.707C242.651,105.392 242.646,106.08 242.646,106.768Z" style="fill:rgb(183,202,223);fill-rule:nonzero;"/>
        </g>
        <g transform="matrix(2.96266,0,0,2.96266,75.2746,152.16)">
            <path d="M179.111,171.598C178.664,169.509 179.789,167.921 180.504,166.232C181.934,162.855 183.42,159.5 184.859,156.127C185.116,155.526 185.365,155.375 186.021,155.665C191.445,158.053 196.884,160.409 202.328,162.748C203.072,163.068 203.431,163.686 203.773,164.311C206.799,169.83 209.796,175.362 212.814,180.884C213.936,182.936 215.058,184.989 216.239,187.008C216.79,187.949 216.942,188.747 216.347,189.783C215.021,192.079 215.086,192.102 212.761,190.789C202.494,184.988 191.982,179.666 181.205,174.883C179.648,174.192 178.465,173.466 179.111,171.598Z" style="fill:rgb(183,202,223);fill-rule:nonzero;"/>
        </g>
        <g transform="matrix(2.96266,0,0,2.96266,75.2746,152.16)">
            <path d="M164.495,148.986C164.162,152.854 164.374,156.736 164.199,160.603C164.114,162.498 164.032,164.389 164.027,166.283C164.024,167.231 163.729,167.394 162.865,167.047C155.006,163.887 147.046,161 138.988,158.39C137.608,157.941 136.237,157.439 134.828,157.117C133.946,156.917 133.95,156.561 134.185,155.858C136.276,149.581 138.662,143.415 141.209,137.31C141.562,136.468 141.934,136.478 142.631,136.786C148.428,139.335 154.233,141.862 160.038,144.394C161.036,144.83 162.014,145.331 163.046,145.665C164.191,146.035 164.704,146.689 164.505,147.896C164.446,148.251 164.495,148.623 164.495,148.986Z" style="fill:rgb(183,202,223);fill-rule:nonzero;"/>
        </g>
        <g transform="matrix(2.96266,0,0,2.96266,75.2746,152.16)">
            <path d="M106.38,155.848C112.206,156.006 117.855,157.256 123.481,158.638C124.771,158.953 126.033,159.383 127.332,159.651C128.075,159.806 128.1,160.074 127.899,160.717C125.78,167.519 123.96,174.399 122.698,181.418C122.549,182.249 122.388,183.076 122.276,183.912C122.196,184.517 121.977,184.729 121.318,184.615C118.576,184.141 115.813,183.881 113.024,183.992C112.862,183.999 112.7,184.008 112.54,183.995C111.639,183.921 110.592,184.745 109.884,183.981C109.293,183.343 109.094,182.33 108.754,181.471C106.449,175.643 104.941,169.61 104.052,163.409C103.748,161.299 103.613,159.175 103.354,157.062C103.232,156.086 103.615,155.743 104.563,155.836C105.163,155.894 105.774,155.848 106.38,155.848Z" style="fill:rgb(183,202,223);fill-rule:nonzero;"/>
        </g>
        <g transform="matrix(2.96266,0,0,2.96266,75.2746,152.16)">
            <path d="M152.702,102.867C149.998,102.491 147.289,102.152 144.595,101.718C143.31,101.511 142.448,100.469 141.439,99.758C138.832,97.922 136.362,95.907 134.059,93.701C133.39,93.061 132.823,92.318 132.205,91.625C131.745,91.109 131.778,90.758 132.362,90.271C138.169,85.424 144.576,81.554 151.465,78.471C153.119,77.729 154.837,77.13 156.521,76.455C156.919,76.297 157.242,76.176 157.559,76.647C159.541,79.606 162.247,81.853 164.973,84.07C165.562,84.549 165.569,84.894 165.124,85.459C161.002,90.702 157.394,96.293 153.943,101.992C153.649,102.478 153.425,103.034 152.702,102.867Z" style="fill:rgb(183,202,223);fill-rule:nonzero;"/>
        </g>
        <g transform="matrix(2.96266,0,0,2.96266,75.2746,152.16)">
            <path d="M194.95,199.766C190.102,199.766 185.251,199.75 180.402,199.78C179.593,199.785 179.27,199.6 179.281,198.709C179.365,192.695 178.929,186.685 179.06,180.668C179.099,178.905 179.085,178.858 180.68,179.575C191.4,184.388 201.871,189.694 212.037,195.597C212.69,195.975 212.673,196.206 212.417,196.878C211.495,199.302 209.885,199.998 207.313,199.835C203.206,199.574 199.072,199.766 194.95,199.766Z" style="fill:rgb(183,202,223);fill-rule:nonzero;"/>
        </g>
        <g transform="matrix(2.96266,0,0,2.96266,75.2746,152.16)">
            <path d="M234.132,148.225C233.694,149.541 233.305,150.815 232.849,152.065C231.006,157.103 229.11,162.122 227.063,167.08C226.667,168.042 226.292,168.379 225.218,167.827C223.464,166.924 221.616,166.201 219.789,165.446C219.296,165.244 219.008,164.946 218.806,164.472C216.806,159.761 214.765,155.066 212.792,150.345C211.396,147.002 209.949,143.676 208.774,140.245C208.663,139.922 208.324,139.535 208.588,139.244C208.893,138.91 209.254,139.31 209.571,139.429C217.39,142.357 225.22,145.252 233.237,147.604C233.615,147.715 234.032,147.769 234.132,148.225Z" style="fill:rgb(183,202,223);fill-rule:nonzero;"/>
        </g>
        <g transform="matrix(2.96266,0,0,2.96266,75.2746,152.16)">
            <path d="M249.659,165.213C249.659,169.254 249.639,173.294 249.674,177.336C249.683,178.269 249.508,178.419 248.609,178.021C243.227,175.64 237.816,173.319 232.417,170.977C232.156,170.864 231.914,170.703 231.646,170.624C230.741,170.357 230.738,169.826 231.055,169.057C232.207,166.264 233.352,163.465 234.426,160.64C235.729,157.211 236.993,153.767 238.196,150.303C238.507,149.408 238.833,149.227 239.761,149.477C242.633,150.254 245.53,150.949 248.438,151.573C249.449,151.79 249.694,152.237 249.681,153.211C249.629,157.211 249.659,161.212 249.659,165.213Z" style="fill:rgb(183,202,223);fill-rule:nonzero;"/>
        </g>
        <g transform="matrix(2.96266,0,0,2.96266,75.2746,152.16)">
            <path d="M226.056,180.436C226.531,179.363 227.022,178.263 227.507,177.159C228.728,174.377 228.752,174.316 231.507,175.49C237.108,177.876 242.677,180.342 248.269,182.75C248.831,182.99 248.984,183.233 248.801,183.841C246.64,190.972 242.018,195.789 235.136,198.527C234.334,198.848 233.987,198.586 233.677,197.871C232.169,194.399 230.629,190.942 229.1,187.479C228.19,185.42 227.278,183.361 226.372,181.3C226.261,181.045 226.18,180.776 226.056,180.436Z" style="fill:rgb(183,202,223);fill-rule:nonzero;"/>
        </g>
        <g transform="matrix(2.96266,0,0,2.96266,75.2746,152.16)">
            <path d="M114.543,112.052C118.26,112.854 121.918,113.624 125.565,114.436C130.548,115.546 135.545,116.599 140.481,117.918C141.591,118.215 142.752,118.428 143.901,118.617C144.516,118.719 144.696,118.989 144.393,119.62C142.778,122.965 141.192,126.322 139.616,129.685C139.363,130.224 139.114,130.392 138.507,130.124C131.564,127.075 124.61,124.055 117.658,121.023C115.661,120.154 113.676,119.258 111.665,118.422C111.066,118.173 110.842,117.962 111.205,117.31C112.07,115.761 112.869,114.172 113.695,112.6C113.888,112.232 114.064,111.841 114.543,112.052Z" style="fill:rgb(183,202,223);fill-rule:nonzero;"/>
        </g>
        <g transform="matrix(2.96266,0,0,2.96266,75.2746,152.16)">
            <path d="M177.091,103.206C176.305,103.113 174.75,102.939 173.198,102.744C172.373,102.641 171.565,102.669 170.869,103.159C168.03,105.158 164.896,104.633 161.776,104.259C161.019,104.167 160.267,103.94 159.514,103.947C158.377,103.958 158.254,103.584 158.802,102.679C160.644,99.647 162.555,96.659 164.604,93.762C165.954,91.856 167.394,90.011 168.728,88.094C169.146,87.494 169.462,87.366 170.07,87.79C174.039,90.568 178.225,92.997 182.433,95.383C183.15,95.789 183.235,96.201 183.07,96.942C182.791,98.206 182.446,99.446 181.918,100.622C180.854,102.994 180.458,103.226 177.091,103.206Z" style="fill:rgb(183,202,223);fill-rule:nonzero;"/>
        </g>
        <g transform="matrix(2.96266,0,0,2.96266,75.2746,152.16)">
            <path d="M203.742,100.928C203.251,100.738 202.863,100.616 202.5,100.444C200.527,99.517 198.57,98.554 196.585,97.652C195.915,97.349 195.738,97.065 196.183,96.403C200.181,90.435 203.74,84.195 207.526,78.096C207.654,77.891 207.82,77.71 207.978,77.526C208.491,76.924 208.491,75.749 209.363,75.675C210.095,75.613 210.875,76.139 211.637,76.401C214.214,77.287 214.248,77.3 213.177,79.785C210.218,86.634 207.229,93.472 204.246,100.312C204.129,100.58 204.074,100.963 203.742,100.928Z" style="fill:rgb(183,202,223);fill-rule:nonzero;"/>
        </g>
        <g transform="matrix(2.96266,0,0,2.96266,75.2746,152.16)">
            <path d="M193.792,124.298C192.052,122.703 190.666,121.078 189.747,119.137C189.106,117.788 188.864,116.324 189.133,114.792C189.414,113.192 189.269,111.566 189.219,109.956C189.166,108.274 189.596,106.777 190.529,105.392C191.34,104.19 192.118,102.966 192.881,101.732C193.176,101.256 193.488,101.185 193.986,101.42C196.43,102.575 198.874,103.731 201.345,104.829C202.157,105.193 201.898,105.684 201.672,106.205C200.243,109.496 198.802,112.784 197.368,116.075C196.193,118.769 195.022,121.467 193.792,124.298Z" style="fill:rgb(183,202,223);fill-rule:nonzero;"/>
        </g>
        <g transform="matrix(2.96266,0,0,2.96266,75.2746,152.16)">
            <path d="M249.659,133.65C249.659,137.768 249.629,141.887 249.68,146.005C249.693,147.068 249.289,147.271 248.38,147.04C245.887,146.407 243.397,145.759 240.892,145.177C240.074,144.985 240.007,144.646 240.235,143.91C241.723,139.106 243.06,134.263 244.147,129.352C244.773,126.528 245.446,123.715 245.803,120.841C245.923,119.878 246.381,119.557 247.341,119.71C249.655,120.08 249.659,120.056 249.659,122.384L249.659,133.65Z" style="fill:rgb(183,202,223);fill-rule:nonzero;"/>
        </g>
        <g transform="matrix(2.96266,0,0,2.96266,75.2746,152.16)">
            <path d="M155.482,199.765C145.784,199.765 136.087,199.765 126.389,199.767C125.88,199.767 125.425,199.792 125.418,199.05C125.395,196.348 125.461,193.65 125.817,190.968C125.905,190.312 126.044,190.038 126.885,190.23C135.196,192.119 143.241,194.845 151.202,197.843C152.657,198.391 154.104,198.965 155.555,199.527C155.529,199.606 155.507,199.686 155.482,199.765Z" style="fill:rgb(183,202,223);fill-rule:nonzero;"/>
        </g>
        <g transform="matrix(2.96266,0,0,2.96266,75.2746,152.16)">
            <path d="M189.013,71.656C190.094,71.747 190.975,71.818 191.854,71.895C192.123,71.917 192.468,71.818 192.585,72.167C192.689,72.48 192.421,72.678 192.242,72.891C190.614,74.832 189.019,76.803 187.349,78.711C184.896,81.513 183.767,84.732 183.89,88.463C183.976,91.106 183.864,91.139 181.648,89.781C178.798,88.035 175.987,86.222 173.143,84.465C172.431,84.024 172.199,83.748 172.905,82.972C175.976,79.591 179.137,76.332 183.02,73.861C184.891,72.668 187.703,71.651 189.013,71.656Z" style="fill:rgb(183,202,223);fill-rule:nonzero;"/>
        </g>
        <g transform="matrix(2.96266,0,0,2.96266,75.2746,152.16)">
            <path d="M188.309,136.638C188.232,137.587 187.669,138.312 187.328,139.123C186.001,142.276 184.629,145.412 183.293,148.562C183.015,149.219 182.647,149.461 181.999,149.053C181.931,149.01 181.854,148.981 181.78,148.948C177.876,147.159 178.663,148.247 178.601,143.955C178.548,140.324 178.577,136.691 178.584,133.058C178.59,130.752 180.697,128.739 182.976,128.941C183.757,129.01 184.356,129.613 184.814,130.221C186.177,132.032 187.05,134.133 188.19,136.076C188.285,136.239 188.275,136.465 188.309,136.638Z" style="fill:rgb(183,202,223);fill-rule:nonzero;"/>
        </g>
        <g transform="matrix(2.96266,0,0,2.96266,75.2746,152.16)">
            <path d="M153.107,125.906C153.196,127.387 153.186,129.282 153.256,131.176C153.355,133.846 156.18,136.019 158.745,136.202C160.187,136.304 161.624,136.514 163.054,136.737C164.224,136.92 164.743,137.638 164.749,138.853C164.76,141.516 164.791,141.519 162.376,140.477C156.525,137.947 150.676,135.415 144.825,132.883C143.44,132.285 143.39,132.155 144.019,130.835C145.579,127.552 147.165,124.281 148.68,120.978C149.062,120.145 149.56,119.8 150.449,119.935C151.124,120.038 151.806,120.119 152.486,120.168C153.154,120.216 153.104,120.685 153.105,121.129C153.11,122.584 153.107,124.04 153.107,125.906Z" style="fill:rgb(183,202,223);fill-rule:nonzero;"/>
        </g>
        <g transform="matrix(2.96266,0,0,2.96266,75.2746,152.16)">
            <path d="M199.227,156.522C196.542,155.359 193.856,154.194 191.171,153.033C190.1,152.569 189.031,152.097 187.951,151.657C187.299,151.393 186.99,151.142 187.365,150.326C188.654,147.527 189.845,144.683 191.185,141.598C194.007,146.666 196.698,151.499 199.39,156.331C199.335,156.395 199.282,156.459 199.227,156.522Z" style="fill:rgb(183,202,223);fill-rule:nonzero;"/>
        </g>
        <g transform="matrix(2.96266,0,0,2.96266,75.2746,152.16)">
            <path d="M114.58,188.39C116.439,188.661 118.667,188.608 120.841,189.076C121.155,189.144 121.55,189.101 121.476,189.588C121.181,191.541 121.146,193.516 120.957,195.476C120.864,196.445 120.918,197.41 120.821,198.371C120.775,198.839 121.16,199.578 120.423,199.706C119.672,199.836 118.784,200.043 118.21,199.197C117.484,198.129 116.719,197.085 116.05,195.982C114.877,194.051 113.761,192.087 112.629,190.133C111.835,188.76 111.938,188.561 113.52,188.394C113.76,188.368 114.004,188.39 114.58,188.39Z" style="fill:rgb(183,202,223);fill-rule:nonzero;"/>
        </g>
        <g transform="matrix(2.96266,0,0,2.96266,75.2746,152.16)">
            <path d="M177.8,71.963C176.703,72.921 175.687,73.748 174.739,74.65C172.781,76.512 170.875,78.428 169.136,80.499C168.692,81.031 168.34,81.011 167.856,80.607C165.884,78.951 163.82,77.401 162.221,75.34C161.803,74.802 161.886,74.685 162.523,74.512C166.562,73.42 170.64,72.564 174.803,72.109C175.748,72.005 176.677,71.798 177.8,71.963Z" style="fill:rgb(183,202,223);fill-rule:nonzero;"/>
        </g>
        <g transform="matrix(2.96266,0,0,2.96266,75.2746,152.16)">
            <path d="M247.058,102.201C248.438,103.686 249.951,104.963 249.713,107.333C249.471,109.727 249.64,112.166 249.67,114.583C249.68,115.396 249.475,115.629 248.611,115.437C246.594,114.993 246.663,114.93 246.848,112.894C247.135,109.741 247.554,106.576 247.065,103.395C247.006,103.006 247.058,102.601 247.058,102.201Z" style="fill:rgb(183,202,223);fill-rule:nonzero;"/>
        </g>
        <g transform="matrix(2.96266,0,0,2.96266,75.2746,152.16)">
            <path d="M134.522,100.227C132.785,100.352 131.403,99.914 129.996,99.765C128.207,99.577 126.43,99.294 124.646,99.062C124.327,99.022 123.956,99.055 123.833,98.688C123.727,98.371 124.032,98.188 124.223,97.996C125.381,96.819 126.542,95.645 127.708,94.477C127.95,94.235 128.199,93.839 128.569,94.316C130.244,96.467 132.334,98.217 134.522,100.227Z" style="fill:rgb(183,202,223);fill-rule:nonzero;"/>
        </g>
        <g transform="matrix(2.96266,0,0,2.96266,75.2746,152.16)">
            <path d="M178.82,158.223C178.82,156.696 178.812,155.171 178.827,153.645C178.829,153.348 178.669,152.883 179.057,152.8C179.685,152.662 180.161,153.172 180.699,153.407C181.039,153.557 180.996,153.833 180.869,154.119C180.259,155.502 179.652,156.888 179.045,158.271C178.97,158.256 178.895,158.239 178.82,158.223Z" style="fill:rgb(183,202,223);fill-rule:nonzero;"/>
        </g>
        <g transform="matrix(2.96266,0,0,2.96266,75.2746,152.16)">
            <path d="M222.08,171.377C222.834,171.685 223.484,171.956 224.139,172.216C224.548,172.379 224.714,172.609 224.452,173.032C224.124,173.566 224.149,174.6 223.568,174.608C222.897,174.621 222.793,173.627 222.554,173.034C222.367,172.57 221.996,172.147 222.08,171.377Z" style="fill:rgb(183,202,223);fill-rule:nonzero;"/>
        </g>
        <g transform="matrix(2.96266,0,0,2.96266,75.2746,152.16)">
            <path d="M216.066,199.717C216.677,198.244 217.037,198.259 218.642,199.717L216.066,199.717Z" style="fill:rgb(183,202,223);fill-rule:nonzero;"/>
        </g>
        <g transform="matrix(2.96266,0,0,2.96266,75.2746,152.16)">
            <path d="M220.557,195.392C220.308,195.27 220.066,195.128 219.807,195.034C218.725,194.644 218.846,194.053 219.579,193.291C220.077,193.93 220.518,194.562 220.547,195.402L220.557,195.392Z" style="fill:rgb(183,202,223);fill-rule:nonzero;"/>
        </g>
        <g transform="matrix(2.96266,0,0,2.96266,75.2746,152.16)">
            <path d="M220.547,195.402C220.58,195.418 220.613,195.432 220.646,195.446C220.618,195.428 220.587,195.409 220.557,195.392L220.547,195.402Z" style="fill:rgb(183,202,223);fill-rule:nonzero;"/>
        </g>
    </g>
</svg>
