<?xml version="1.0" encoding="UTF-8" standalone="no"?>
<!DOCTYPE svg PUBLIC "-//W3C//DTD SVG 1.1//EN" "http://www.w3.org/Graphics/SVG/1.1/DTD/svg11.dtd">
<svg width="100%" height="100%" viewBox="0 0 2249 760" version="1.1" xmlns="http://www.w3.org/2000/svg" xmlns:xlink="http://www.w3.org/1999/xlink" xml:space="preserve" xmlns:serif="http://www.serif.com/" style="fill-rule:evenodd;clip-rule:evenodd;stroke-linecap:round;stroke-linejoin:round;stroke-miterlimit:2;">
    <g transform="matrix(1,0,0,1,-66.6982,-145.174)">
        <g transform="matrix(2.96266,0,0,2.96266,75.2746,152.16)">
            <path d="M745.741,187.709C743.976,187.709 742.331,187.475 740.788,186.999C739.257,186.523 737.983,186.022 736.976,185.483L736.976,180.499L737.208,180.499C737.589,180.797 738.03,181.127 738.548,181.49C739.056,181.853 739.741,182.232 740.589,182.628C741.347,182.975 742.177,183.281 743.081,183.547C743.991,183.814 744.929,183.95 745.911,183.95C746.622,183.95 747.372,183.868 748.179,183.7C748.985,183.538 749.581,183.329 749.978,183.071C750.524,182.716 750.921,182.33 751.171,181.919C751.413,181.507 751.534,180.894 751.534,180.07C751.534,179.015 751.243,178.215 750.671,177.683C750.099,177.143 749.081,176.699 747.612,176.335C747.048,176.19 746.308,176.029 745.396,175.844C744.476,175.659 743.636,175.448 742.862,175.23C740.847,174.65 739.378,173.747 738.466,172.528C737.554,171.303 737.097,169.826 737.097,168.093C737.097,165.713 737.991,163.776 739.79,162.277C741.589,160.785 743.976,160.035 746.952,160.035C748.421,160.035 749.888,160.211 751.372,160.575C752.856,160.937 754.099,161.397 755.106,161.947L755.106,166.697L754.874,166.697C753.737,165.802 752.47,165.092 751.073,164.575C749.687,164.052 748.274,163.794 746.854,163.794C745.396,163.794 744.161,164.101 743.153,164.713C742.146,165.325 741.638,166.262 741.638,167.504C741.638,168.609 741.935,169.431 742.532,169.973C743.13,170.513 744.089,170.965 745.413,171.311C746.073,171.479 746.815,171.65 747.622,171.818C748.437,171.98 749.292,172.175 750.187,172.392C752.147,172.884 753.616,173.698 754.599,174.828C755.583,175.965 756.075,177.506 756.075,179.458C756.075,180.594 755.849,181.668 755.397,182.685C754.954,183.7 754.292,184.571 753.429,185.298C752.485,186.088 751.413,186.685 750.226,187.096C749.032,187.507 747.542,187.709 745.741,187.709ZM732.185,187.072L727.739,187.072L727.739,184.144C726.366,185.337 725.069,186.249 723.833,186.87C722.608,187.492 721.237,187.807 719.729,187.807C718.575,187.807 717.495,187.62 716.479,187.242C715.462,186.862 714.575,186.265 713.817,185.442C713.06,184.62 712.472,183.596 712.06,182.346C711.64,181.103 711.429,179.595 711.429,177.811L711.429,160.681L715.874,160.681L715.874,175.706C715.874,177.11 715.923,178.272 716.026,179.199C716.132,180.119 716.366,180.926 716.72,181.62C717.085,182.297 717.575,182.79 718.204,183.102C718.825,183.419 719.722,183.579 720.882,183.579C721.972,183.579 723.134,183.273 724.358,182.66C725.585,182.04 726.716,181.29 727.739,180.385L727.739,160.681L732.185,160.681L732.185,187.072ZM703.419,187.588C700.991,187.588 699.104,186.902 697.751,185.523C696.394,184.144 695.716,181.966 695.716,178.99L695.716,164.366L692.718,164.366L692.718,160.681L695.716,160.681L695.716,153.098L700.161,153.098L700.161,160.681L708.331,160.681L708.331,164.366L700.161,164.366L700.161,176.908C700.161,178.248 700.185,179.28 700.235,180.006C700.282,180.731 700.46,181.409 700.774,182.04C701.04,182.588 701.478,183.007 702.071,183.281C702.669,183.555 703.485,183.693 704.509,183.693C705.226,183.693 705.929,183.588 706.606,183.379C707.282,183.16 707.774,182.983 708.073,182.846L708.331,182.846L708.331,186.83C707.501,187.072 706.653,187.258 705.792,187.387C704.937,187.522 704.146,187.588 703.419,187.588ZM689.19,187.072L684.749,187.072L684.749,172.045C684.749,170.827 684.69,169.698 684.569,168.649C684.448,167.601 684.231,166.762 683.899,166.133C683.538,165.472 683.028,164.979 682.384,164.656C681.739,164.334 680.853,164.172 679.737,164.172C678.632,164.172 677.497,164.472 676.319,165.061C675.149,165.648 674.003,166.415 672.882,167.367L672.882,187.072L668.438,187.072L668.438,160.681L672.882,160.681L672.882,163.608C674.204,162.431 675.511,161.519 676.802,160.89C678.101,160.261 679.464,159.946 680.892,159.946C683.497,159.946 685.528,160.802 686.987,162.511C688.458,164.221 689.19,166.697 689.19,169.94L689.19,187.072ZM659.63,170.932L645.667,170.932C645.765,169.811 645.981,168.836 646.329,167.988C646.677,167.149 647.175,166.383 647.837,165.689C648.515,165.011 649.272,164.494 650.095,164.142C650.927,163.786 651.925,163.608 653.112,163.608C654.306,163.608 655.306,163.776 656.12,164.125C656.937,164.472 657.597,164.979 658.12,165.64C658.589,166.237 658.95,166.972 659.202,167.835C659.46,168.705 659.599,169.738 659.63,170.932ZM654.425,187.685C655.501,187.685 656.386,187.62 657.089,187.5C657.79,187.37 658.573,187.185 659.437,186.951C660.05,186.781 660.743,186.539 661.517,186.233C662.29,185.927 662.937,185.669 663.452,185.468L663.452,180.618L663.196,180.618C662.831,180.917 662.372,181.24 661.823,181.579C661.276,181.919 660.597,182.265 659.79,182.628C659.032,182.975 658.185,183.265 657.251,183.482C656.313,183.7 655.362,183.814 654.388,183.814C651.661,183.814 649.522,182.999 647.981,181.377C646.442,179.756 645.667,177.409 645.667,174.336L663.952,174.336L663.952,171.924C663.952,169.819 663.704,168.028 663.196,166.576C662.694,165.116 661.97,163.881 661.026,162.874C660.081,161.866 658.976,161.124 657.718,160.656C656.452,160.181 655.007,159.946 653.372,159.946C649.724,159.946 646.782,161.222 644.53,163.762C642.278,166.302 641.151,169.729 641.151,174.028C641.151,178.393 642.312,181.756 644.636,184.129C646.958,186.499 650.226,187.685 654.425,187.685ZM642.157,151.888L630.058,187.072L625.009,187.072L612.911,151.888L617.921,151.888L627.647,181.062L637.382,151.888L642.157,151.888Z" style="fill:rgb(230,230,230);fill-rule:nonzero;"/>
        </g>
        <g transform="matrix(2.96266,0,0,2.96266,75.2746,152.16)">
            <path d="M599.071,194.845C597.175,194.845 595.636,193.307 595.636,191.41L595.636,101.451C595.636,99.554 597.175,98.017 599.071,98.017C600.97,98.017 602.507,99.554 602.507,101.451L602.507,191.41C602.507,193.307 600.97,194.845 599.071,194.845Z" style="fill:rgb(230,230,230);fill-rule:nonzero;"/>
        </g>
        <g transform="matrix(2.96266,0,0,2.96266,75.2746,152.16)">
            <path d="M458.735,113.503L458.22,113.503C457.347,113.182 456.103,112.879 454.466,112.595C452.829,112.293 451.37,112.15 450.089,112.15C445.942,112.15 443.009,113.076 441.249,114.943C439.487,116.811 438.614,120.174 438.614,125.047L438.614,127.022L454.821,127.022L454.821,135.152L438.935,135.152L438.935,185.23L429.134,185.23L429.134,135.152L422.515,135.152L422.515,127.022L429.134,127.022L429.134,125.101C429.134,118.074 430.821,112.737 434.185,109.09C437.563,105.442 442.386,103.61 448.683,103.61C450.481,103.61 452.261,103.7 453.985,103.896C455.728,104.092 457.312,104.305 458.735,104.554L458.735,113.503ZM407.927,156.144C407.927,148.62 406.558,143.016 403.8,139.35C401.06,135.685 397.147,133.852 392.077,133.852C386.972,133.852 383.021,135.685 380.265,139.35C377.508,143.016 376.12,148.62 376.12,156.144C376.12,163.436 377.508,168.969 380.265,172.742C383.021,176.513 386.972,178.398 392.077,178.398C397.11,178.398 401.024,176.548 403.782,172.848C406.54,169.147 407.927,163.579 407.927,156.144ZM418.032,156.144C418.032,165.945 415.665,173.524 410.95,178.843C406.22,184.18 399.921,186.849 392.077,186.849C383.983,186.849 377.613,184.092 372.971,178.595C368.328,173.08 366.015,165.608 366.015,156.144C366.015,146.431 368.398,138.869 373.185,133.479C377.952,128.089 384.251,125.402 392.077,125.402C399.921,125.402 406.22,128.089 410.95,133.462C415.665,138.816 418.032,146.394 418.032,156.144ZM363.044,137.535L362.527,137.535C361.799,137.322 361.017,137.197 360.198,137.144C359.379,137.092 358.401,137.073 357.263,137.073C354.613,137.073 351.997,137.643 349.381,138.799C346.784,139.937 344.312,141.645 341.981,143.904L341.981,185.23L332.179,185.23L332.179,127.022L341.981,127.022L341.981,135.668C345.558,132.519 348.688,130.277 351.338,128.978C354.007,127.681 356.587,127.022 359.077,127.022C360.091,127.022 360.838,127.039 361.354,127.094C361.853,127.146 362.422,127.234 363.044,127.342L363.044,137.535ZM312.379,131.291C312.379,128.623 311.916,126.293 310.991,124.3C310.084,122.325 308.679,120.708 306.792,119.462C305.174,118.376 303.27,117.612 301.083,117.166C298.911,116.722 296.208,116.491 292.988,116.491L284.432,116.491L284.432,147.498L291.476,147.498C295.639,147.498 299.019,147.159 301.581,146.483C304.16,145.808 306.294,144.599 308.002,142.853C309.533,141.289 310.636,139.599 311.329,137.75C312.023,135.916 312.379,133.765 312.379,131.291ZM323.124,131.023C323.124,134.405 322.52,137.589 321.328,140.596C320.118,143.602 318.463,146.164 316.346,148.281C313.659,150.913 310.529,152.923 306.899,154.276C303.289,155.628 298.716,156.305 293.184,156.305L284.432,156.305L284.432,185.23L274.113,185.23L274.113,107.632L293.611,107.632C298.199,107.632 302.114,108.006 305.352,108.77C308.571,109.534 311.437,110.78 313.892,112.472C316.772,114.462 319.032,116.971 320.669,120.014C322.305,123.055 323.124,126.72 323.124,131.023Z" style="fill:rgb(230,230,230);fill-rule:nonzero;"/>
        </g>
        <g transform="matrix(2.96266,0,0,2.96266,75.2746,152.16)">
            <path d="M553.056,186.636C547.985,186.636 543.325,185.781 539.073,184.074C534.804,182.383 531.14,179.84 528.044,176.477C524.948,173.098 522.546,168.898 520.856,163.863C519.149,158.83 518.296,153.049 518.296,146.501C518.296,140.008 519.112,134.351 520.767,129.513C522.422,124.692 524.823,120.493 527.991,116.918C531.085,113.431 534.749,110.78 538.983,108.965C543.237,107.135 547.968,106.227 553.216,106.227C555.831,106.227 558.269,106.421 560.546,106.795C562.821,107.187 564.921,107.667 566.878,108.254C568.55,108.788 570.259,109.429 572.001,110.211C573.763,110.994 575.489,111.848 577.196,112.79L577.196,125.243L576.362,125.243C575.454,124.406 574.296,123.411 572.874,122.219C571.45,121.045 569.706,119.871 567.659,118.733C565.685,117.647 563.517,116.775 561.204,116.082C558.872,115.388 556.169,115.031 553.128,115.031C549.817,115.031 546.687,115.708 543.733,117.061C540.78,118.411 538.202,120.423 535.978,123.055C533.79,125.706 532.081,129.014 530.872,133.017C529.644,137.002 529.04,141.503 529.04,146.501C529.04,151.82 529.679,156.394 530.96,160.235C532.259,164.078 534.003,167.316 536.228,169.967C538.38,172.528 540.923,174.468 543.841,175.767C546.759,177.064 549.853,177.722 553.128,177.722C556.097,177.722 558.872,177.366 561.399,176.638C563.942,175.908 566.204,174.982 568.177,173.861C570.099,172.795 571.735,171.691 573.122,170.553C574.528,169.433 575.612,168.472 576.413,167.671L577.196,167.671L577.196,179.965C575.489,180.765 573.888,181.53 572.376,182.259C570.864,182.988 569.03,183.7 566.878,184.394C564.618,185.123 562.521,185.675 560.599,186.066C558.659,186.438 556.151,186.636 553.056,186.636ZM462.843,185.23L462.843,107.632L511.374,107.632L511.374,116.811L473.163,116.811L473.163,138.068L508.776,138.068L508.776,147.248L473.163,147.248L473.163,176.051L511.374,176.051L511.374,185.23L462.843,185.23Z" style="fill:rgb(8,91,151);fill-rule:nonzero;"/>
        </g>
        <g transform="matrix(2.96266,0,0,2.96266,75.2746,152.16)">
            <path d="M208.686,199.827L118.979,199.767C118.979,199.767 99.165,175.866 103.729,143.43C103.729,143.43 106.164,122.134 115.669,109.582L2.638,85.405L121.484,101.895C121.484,101.895 141.359,67.693 196.355,71.902L250.298,3.175L206.314,74.662C206.314,74.662 236.381,83.067 249.68,104.611L249.68,181.26C249.68,181.26 247.841,195.794 231.777,199.9L253.336,248.463L226.412,199.9L208.686,199.827Z" style="fill:white;fill-rule:nonzero;"/>
        </g>
        <g transform="matrix(2.96266,0,0,2.96266,75.2746,152.16)">
            <path d="M208.686,199.827L118.979,199.767C118.979,199.767 99.165,175.866 103.729,143.43C103.729,143.43 106.164,122.134 115.669,109.582L2.638,85.405L121.485,101.895C121.485,101.895 141.359,67.693 196.355,71.902L250.298,3.175L206.314,74.662C206.314,74.662 236.381,83.067 249.68,104.611L249.68,181.26C249.68,181.26 247.841,195.794 231.777,199.9L253.336,248.463L226.412,199.9L208.686,199.827Z" style="fill:none;stroke:white;stroke-width:11.07px;"/>
        </g>
        <g transform="matrix(2.96266,0,0,2.96266,75.2746,152.16)">
            <path d="M175.981,199.899L166.52,199.9C166.52,199.9 167.797,135.01 168.028,129.447C168.078,128.237 167.468,128.211 166.629,128.37C165.676,128.551 164.568,129.913 164.525,130.901C164.521,131.023 164.524,131.144 164.522,131.266C164.495,133.935 164.487,133.991 161.87,133.594C160.677,133.413 159.486,133.246 158.289,133.097C156.672,132.894 156.32,132.457 156.317,130.788C156.313,127.635 156.371,124.481 156.332,121.329C156.313,119.862 156.697,118.917 158.213,118.278C161.385,116.936 164.585,115.902 168.062,115.878C169.076,115.871 169.568,116.322 170.23,117.153C172.58,120.11 175.04,123.092 179.335,123.173C180.693,123.199 180.84,124.353 181.188,125.23C181.52,126.061 180.854,126.433 180.188,126.736C178.751,127.389 177.673,128.74 175.937,128.838C175.354,128.872 175.561,129.471 175.559,129.832" style="fill:rgb(8,91,151);fill-rule:nonzero;"/>
        </g>
        <g transform="matrix(2.96266,0,0,2.96266,75.2746,152.16)">
            <path d="M205.948,140.889C204.515,136.663 202.095,133.494 198.233,131.322C195.844,129.98 193.779,128.18 191.745,126.359C189.001,123.903 187.298,120.722 185.593,117.531C185.149,116.702 185.059,116.091 185.467,115.172C186.728,112.335 186.188,109.889 184.172,108.166C182.118,106.409 178.231,106.44 176.372,107.275C175.701,107.577 175.613,107.939 175.964,108.571C176.398,109.356 176.233,109.756 175.229,109.508C174.647,109.362 174.039,109.325 173.443,109.237C168.712,108.543 4.688,85.378 2.638,85.405C4.645,86.123 138.619,114.394 145.913,116.034C148.213,116.553 150.526,117.212 152.924,116.519C155.092,115.894 157.109,114.884 159.209,114.086C162.003,113.023 164.874,112.215 167.866,112.232C170.067,112.245 172.262,112.656 174.428,113.109C174.754,113.178 175.276,112.949 175.367,113.382C175.456,113.805 174.97,114.06 174.649,114.266C173.559,114.968 173.381,115.937 174.273,116.939C175.224,118.004 176.362,118.828 177.759,119.207C179.134,119.578 180.532,119.935 181.653,118.331C182.64,120.214 253.052,248.625 253.336,248.463C253.493,248.373 208.196,147.519 205.948,140.889Z" style="fill:rgb(8,91,151);fill-rule:nonzero;"/>
        </g>
        <g transform="matrix(2.96266,0,0,2.96266,75.2746,152.16)">
            <path d="M190.058,79.672C188.653,81.315 187.396,83.025 187.362,85.323C187.349,86.251 187.296,87.179 187.27,88.109C187.128,93.05 186.582,97.912 184.388,102.436C183.96,103.32 183.307,104.176 184.997,104.371C185.215,104.395 185.417,104.593 185.619,104.721C187.053,105.629 187.078,105.646 187.971,104.209C193.816,94.802 249.831,4.652 250.298,3.175C249.283,4.163 197.319,71.187 190.058,79.672Z" style="fill:rgb(8,91,151);fill-rule:nonzero;"/>
        </g>
        <g transform="matrix(2.96266,0,0,2.96266,75.2746,152.16)">
            <path d="M241.534,119.451C240.593,125.056 239.332,130.666 237.798,136.213C237.209,138.35 236.529,140.459 235.94,142.594C235.712,143.42 235.329,143.568 234.527,143.32C224.619,140.259 214.85,136.809 205.285,132.802C203.136,131.902 201.463,130.154 199.54,128.84C197.302,127.311 197.393,127.241 198.503,124.711C200.886,119.283 203.239,113.84 205.59,108.397C206.213,106.955 206.237,106.948 207.695,107.564C217.514,111.711 227.546,115.233 237.872,117.892C238.885,118.151 239.914,118.347 240.929,118.602C241.303,118.696 241.786,118.769 241.534,119.451Z" style="fill:rgb(183,202,223);fill-rule:nonzero;"/>
        </g>
        <g transform="matrix(2.96266,0,0,2.96266,75.2746,152.16)">
            <path d="M163.788,176.759C163.556,181.154 163.644,185.561 163.45,189.952C163.355,192.109 163.691,194.391 162.468,196.459C162.041,197.178 161.777,197.259 161.12,196.976C154.297,194.041 147.334,191.479 140.257,189.234C136.188,187.944 132.099,186.71 127.899,185.91C126.766,185.693 126.571,185.242 126.77,184.107C128.076,176.64 129.966,169.321 132.176,162.076C132.414,161.293 132.652,161.139 133.431,161.378C143.346,164.419 153.077,167.971 162.711,171.801C163.561,172.14 163.886,172.569 163.809,173.486C163.719,174.569 163.788,175.667 163.788,176.759Z" style="fill:rgb(183,202,223);fill-rule:nonzero;"/>
        </g>
        <g transform="matrix(2.96266,0,0,2.96266,75.2746,152.16)">
            <path d="M103.34,148.567C103.691,139.9 105.565,131.334 108.73,123.035C108.979,122.386 109.295,122.315 109.923,122.589C116.605,125.516 123.303,128.409 129.994,131.318C132.175,132.267 134.332,133.274 136.536,134.167C137.313,134.482 137.382,134.799 137.082,135.518C134.49,141.727 132.037,147.995 129.94,154.393C129.646,155.292 129.227,155.503 128.339,155.253C123.655,153.929 118.919,152.785 114.106,152.071C110.781,151.576 107.437,150.92 104.034,151.431C103.477,151.514 103.325,151.218 103.337,150.727C103.35,150.082 103.34,149.436 103.34,148.567Z" style="fill:rgb(183,202,223);fill-rule:nonzero;"/>
        </g>
        <g transform="matrix(2.96266,0,0,2.96266,75.2746,152.16)">
            <path d="M242.646,106.768C242.638,108.822 242.612,110.875 242.421,112.929C242.321,113.988 241.983,114.253 240.979,114.011C235.375,112.658 229.869,110.98 224.408,109.139C219.438,107.461 214.574,105.515 209.709,103.568C208.026,102.895 207.999,102.865 208.734,101.17C211.578,94.622 214.429,88.08 217.309,81.548C218.36,79.163 218.402,79.175 220.732,80.354C226.52,83.279 231.702,87.072 236.804,91.062C241.379,94.639 242.589,99.352 242.645,104.707C242.651,105.392 242.646,106.08 242.646,106.768Z" style="fill:rgb(183,202,223);fill-rule:nonzero;"/>
        </g>
        <g transform="matrix(2.96266,0,0,2.96266,75.2746,152.16)">
            <path d="M179.111,171.598C178.664,169.509 179.789,167.921 180.504,166.232C181.934,162.855 183.42,159.5 184.859,156.127C185.116,155.526 185.365,155.375 186.021,155.665C191.445,158.053 196.884,160.409 202.328,162.748C203.072,163.068 203.431,163.686 203.773,164.311C206.799,169.83 209.796,175.362 212.814,180.884C213.936,182.936 215.058,184.989 216.239,187.008C216.79,187.949 216.942,188.747 216.347,189.783C215.021,192.079 215.086,192.102 212.761,190.789C202.494,184.988 191.982,179.666 181.205,174.883C179.648,174.192 178.465,173.466 179.111,171.598Z" style="fill:rgb(183,202,223);fill-rule:nonzero;"/>
        </g>
        <g transform="matrix(2.96266,0,0,2.96266,75.2746,152.16)">
            <path d="M164.495,148.986C164.162,152.854 164.374,156.736 164.199,160.603C164.114,162.498 164.032,164.389 164.027,166.283C164.024,167.231 163.729,167.394 162.865,167.047C155.006,163.887 147.046,161 138.988,158.39C137.608,157.941 136.237,157.439 134.828,157.117C133.946,156.917 133.95,156.561 134.185,155.858C136.276,149.581 138.662,143.415 141.209,137.31C141.562,136.468 141.934,136.478 142.631,136.786C148.428,139.335 154.233,141.862 160.038,144.394C161.036,144.83 162.014,145.331 163.046,145.665C164.191,146.035 164.704,146.689 164.505,147.896C164.446,148.251 164.495,148.623 164.495,148.986Z" style="fill:rgb(183,202,223);fill-rule:nonzero;"/>
        </g>
        <g transform="matrix(2.96266,0,0,2.96266,75.2746,152.16)">
            <path d="M106.38,155.848C112.206,156.006 117.855,157.256 123.481,158.638C124.771,158.953 126.033,159.383 127.332,159.651C128.075,159.806 128.1,160.074 127.899,160.717C125.78,167.519 123.96,174.399 122.698,181.418C122.549,182.249 122.388,183.076 122.276,183.912C122.196,184.517 121.977,184.729 121.318,184.615C118.576,184.141 115.813,183.881 113.024,183.992C112.862,183.999 112.7,184.008 112.54,183.995C111.639,183.921 110.592,184.745 109.884,183.981C109.293,183.343 109.094,182.33 108.754,181.471C106.449,175.643 104.941,169.61 104.052,163.409C103.748,161.299 103.613,159.175 103.354,157.062C103.232,156.086 103.615,155.743 104.563,155.836C105.163,155.894 105.774,155.848 106.38,155.848Z" style="fill:rgb(183,202,223);fill-rule:nonzero;"/>
        </g>
        <g transform="matrix(2.96266,0,0,2.96266,75.2746,152.16)">
            <path d="M152.702,102.867C149.998,102.491 147.289,102.152 144.595,101.718C143.31,101.511 142.448,100.469 141.439,99.758C138.832,97.922 136.362,95.907 134.059,93.701C133.39,93.061 132.823,92.318 132.205,91.625C131.745,91.109 131.778,90.758 132.362,90.271C138.169,85.424 144.576,81.554 151.465,78.471C153.119,77.729 154.837,77.13 156.521,76.455C156.919,76.297 157.242,76.176 157.559,76.647C159.541,79.606 162.247,81.853 164.973,84.07C165.562,84.549 165.569,84.894 165.124,85.459C161.002,90.702 157.394,96.293 153.943,101.992C153.649,102.478 153.425,103.034 152.702,102.867Z" style="fill:rgb(183,202,223);fill-rule:nonzero;"/>
        </g>
        <g transform="matrix(2.96266,0,0,2.96266,75.2746,152.16)">
            <path d="M194.95,199.766C190.102,199.766 185.251,199.75 180.402,199.78C179.593,199.785 179.27,199.6 179.281,198.709C179.365,192.695 178.929,186.685 179.06,180.668C179.099,178.905 179.085,178.858 180.68,179.575C191.4,184.388 201.871,189.694 212.037,195.597C212.69,195.975 212.673,196.206 212.417,196.878C211.495,199.302 209.885,199.998 207.313,199.835C203.206,199.574 199.072,199.766 194.95,199.766Z" style="fill:rgb(183,202,223);fill-rule:nonzero;"/>
        </g>
        <g transform="matrix(2.96266,0,0,2.96266,75.2746,152.16)">
            <path d="M234.132,148.225C233.694,149.541 233.305,150.815 232.849,152.065C231.006,157.103 229.11,162.122 227.063,167.08C226.667,168.042 226.292,168.379 225.218,167.827C223.464,166.924 221.616,166.201 219.789,165.446C219.296,165.244 219.008,164.946 218.806,164.472C216.806,159.761 214.765,155.066 212.792,150.345C211.396,147.002 209.949,143.676 208.774,140.245C208.663,139.922 208.324,139.535 208.588,139.244C208.893,138.91 209.254,139.31 209.571,139.429C217.39,142.357 225.22,145.252 233.237,147.604C233.615,147.715 234.032,147.769 234.132,148.225Z" style="fill:rgb(183,202,223);fill-rule:nonzero;"/>
        </g>
        <g transform="matrix(2.96266,0,0,2.96266,75.2746,152.16)">
            <path d="M249.659,165.213C249.659,169.254 249.639,173.294 249.674,177.336C249.683,178.269 249.508,178.419 248.609,178.021C243.227,175.64 237.816,173.319 232.417,170.977C232.156,170.864 231.914,170.703 231.646,170.624C230.741,170.357 230.738,169.826 231.055,169.057C232.207,166.264 233.352,163.465 234.426,160.64C235.729,157.211 236.993,153.767 238.196,150.303C238.507,149.408 238.833,149.227 239.761,149.477C242.633,150.254 245.53,150.949 248.438,151.573C249.449,151.79 249.694,152.237 249.681,153.211C249.629,157.211 249.659,161.212 249.659,165.213Z" style="fill:rgb(183,202,223);fill-rule:nonzero;"/>
        </g>
        <g transform="matrix(2.96266,0,0,2.96266,75.2746,152.16)">
            <path d="M226.056,180.436C226.531,179.363 227.022,178.263 227.507,177.159C228.728,174.377 228.752,174.316 231.507,175.49C237.108,177.876 242.677,180.342 248.269,182.75C248.831,182.99 248.984,183.233 248.801,183.841C246.64,190.972 242.018,195.789 235.136,198.527C234.334,198.848 233.987,198.586 233.677,197.871C232.169,194.399 230.629,190.942 229.1,187.479C228.19,185.42 227.278,183.361 226.372,181.3C226.261,181.045 226.18,180.776 226.056,180.436Z" style="fill:rgb(183,202,223);fill-rule:nonzero;"/>
        </g>
        <g transform="matrix(2.96266,0,0,2.96266,75.2746,152.16)">
            <path d="M114.543,112.052C118.26,112.854 121.918,113.624 125.565,114.436C130.548,115.546 135.545,116.599 140.481,117.918C141.591,118.215 142.752,118.428 143.901,118.617C144.516,118.719 144.696,118.989 144.393,119.62C142.778,122.965 141.192,126.322 139.616,129.685C139.363,130.224 139.114,130.392 138.507,130.124C131.564,127.075 124.61,124.055 117.658,121.023C115.661,120.154 113.676,119.258 111.665,118.422C111.066,118.173 110.842,117.962 111.205,117.31C112.07,115.761 112.869,114.172 113.695,112.6C113.888,112.232 114.064,111.841 114.543,112.052Z" style="fill:rgb(183,202,223);fill-rule:nonzero;"/>
        </g>
        <g transform="matrix(2.96266,0,0,2.96266,75.2746,152.16)">
            <path d="M177.091,103.206C176.305,103.113 174.75,102.939 173.198,102.744C172.373,102.641 171.565,102.669 170.869,103.159C168.03,105.158 164.896,104.633 161.776,104.259C161.019,104.167 160.267,103.94 159.514,103.947C158.377,103.958 158.254,103.584 158.802,102.679C160.644,99.647 162.555,96.659 164.604,93.762C165.954,91.856 167.394,90.011 168.728,88.094C169.146,87.494 169.462,87.366 170.07,87.79C174.039,90.568 178.225,92.997 182.433,95.383C183.15,95.789 183.235,96.201 183.07,96.942C182.791,98.206 182.446,99.446 181.918,100.622C180.854,102.994 180.458,103.226 177.091,103.206Z" style="fill:rgb(183,202,223);fill-rule:nonzero;"/>
        </g>
        <g transform="matrix(2.96266,0,0,2.96266,75.2746,152.16)">
            <path d="M203.742,100.928C203.251,100.738 202.863,100.616 202.5,100.444C200.527,99.517 198.57,98.554 196.585,97.652C195.915,97.349 195.738,97.065 196.183,96.403C200.181,90.435 203.74,84.195 207.526,78.096C207.654,77.891 207.82,77.71 207.978,77.526C208.491,76.924 208.491,75.749 209.363,75.675C210.095,75.613 210.875,76.139 211.637,76.401C214.214,77.287 214.248,77.3 213.177,79.785C210.218,86.634 207.229,93.472 204.246,100.312C204.129,100.58 204.074,100.963 203.742,100.928Z" style="fill:rgb(183,202,223);fill-rule:nonzero;"/>
        </g>
        <g transform="matrix(2.96266,0,0,2.96266,75.2746,152.16)">
            <path d="M193.792,124.298C192.052,122.703 190.666,121.078 189.747,119.137C189.106,117.788 188.864,116.324 189.133,114.792C189.414,113.192 189.269,111.566 189.219,109.956C189.166,108.274 189.596,106.777 190.529,105.392C191.34,104.19 192.118,102.966 192.881,101.732C193.176,101.256 193.488,101.185 193.986,101.42C196.43,102.575 198.874,103.731 201.345,104.829C202.157,105.193 201.898,105.684 201.672,106.205C200.243,109.496 198.802,112.784 197.368,116.075C196.193,118.769 195.022,121.467 193.792,124.298Z" style="fill:rgb(183,202,223);fill-rule:nonzero;"/>
        </g>
        <g transform="matrix(2.96266,0,0,2.96266,75.2746,152.16)">
            <path d="M249.659,133.65C249.659,137.768 249.629,141.887 249.68,146.005C249.693,147.068 249.289,147.271 248.38,147.04C245.887,146.407 243.397,145.759 240.892,145.177C240.074,144.985 240.007,144.646 240.235,143.91C241.723,139.106 243.06,134.263 244.147,129.352C244.773,126.528 245.446,123.715 245.803,120.841C245.923,119.878 246.381,119.557 247.341,119.71C249.655,120.08 249.659,120.056 249.659,122.384L249.659,133.65Z" style="fill:rgb(183,202,223);fill-rule:nonzero;"/>
        </g>
        <g transform="matrix(2.96266,0,0,2.96266,75.2746,152.16)">
            <path d="M155.482,199.765C145.784,199.765 136.087,199.765 126.389,199.767C125.88,199.767 125.425,199.792 125.418,199.05C125.395,196.348 125.461,193.65 125.817,190.968C125.905,190.312 126.044,190.038 126.885,190.23C135.196,192.119 143.241,194.845 151.202,197.843C152.657,198.391 154.104,198.965 155.555,199.527C155.529,199.606 155.507,199.686 155.482,199.765Z" style="fill:rgb(183,202,223);fill-rule:nonzero;"/>
        </g>
        <g transform="matrix(2.96266,0,0,2.96266,75.2746,152.16)">
            <path d="M189.013,71.656C190.094,71.747 190.975,71.818 191.854,71.895C192.123,71.917 192.468,71.818 192.585,72.167C192.689,72.48 192.421,72.678 192.242,72.891C190.614,74.832 189.019,76.803 187.349,78.711C184.896,81.513 183.767,84.732 183.89,88.463C183.976,91.106 183.864,91.139 181.648,89.781C178.798,88.035 175.987,86.222 173.143,84.465C172.431,84.024 172.199,83.748 172.905,82.972C175.976,79.591 179.137,76.332 183.02,73.861C184.891,72.668 187.703,71.651 189.013,71.656Z" style="fill:rgb(183,202,223);fill-rule:nonzero;"/>
        </g>
        <g transform="matrix(2.96266,0,0,2.96266,75.2746,152.16)">
            <path d="M188.309,136.638C188.232,137.587 187.669,138.312 187.328,139.123C186.001,142.276 184.629,145.412 183.293,148.562C183.015,149.219 182.647,149.461 181.999,149.053C181.931,149.01 181.854,148.981 181.78,148.948C177.876,147.159 178.663,148.247 178.601,143.955C178.548,140.324 178.577,136.691 178.584,133.058C178.59,130.752 180.697,128.739 182.976,128.941C183.757,129.01 184.356,129.613 184.814,130.221C186.177,132.032 187.05,134.133 188.19,136.076C188.285,136.239 188.275,136.465 188.309,136.638Z" style="fill:rgb(183,202,223);fill-rule:nonzero;"/>
        </g>
        <g transform="matrix(2.96266,0,0,2.96266,75.2746,152.16)">
            <path d="M153.107,125.906C153.196,127.387 153.186,129.282 153.256,131.176C153.355,133.846 156.18,136.019 158.745,136.202C160.187,136.304 161.624,136.514 163.054,136.737C164.224,136.92 164.743,137.638 164.749,138.853C164.76,141.516 164.791,141.519 162.376,140.477C156.525,137.947 150.676,135.415 144.825,132.883C143.44,132.285 143.39,132.155 144.019,130.835C145.579,127.552 147.165,124.281 148.68,120.978C149.062,120.145 149.56,119.8 150.449,119.935C151.124,120.038 151.806,120.119 152.486,120.168C153.154,120.216 153.104,120.685 153.105,121.129C153.11,122.584 153.107,124.04 153.107,125.906Z" style="fill:rgb(183,202,223);fill-rule:nonzero;"/>
        </g>
        <g transform="matrix(2.96266,0,0,2.96266,75.2746,152.16)">
            <path d="M199.227,156.522C196.542,155.359 193.856,154.194 191.171,153.033C190.1,152.569 189.031,152.097 187.951,151.657C187.299,151.393 186.99,151.142 187.365,150.326C188.654,147.527 189.845,144.683 191.185,141.598C194.007,146.666 196.698,151.499 199.39,156.331C199.335,156.395 199.282,156.459 199.227,156.522Z" style="fill:rgb(183,202,223);fill-rule:nonzero;"/>
        </g>
        <g transform="matrix(2.96266,0,0,2.96266,75.2746,152.16)">
            <path d="M114.58,188.39C116.439,188.661 118.667,188.608 120.841,189.076C121.155,189.144 121.55,189.101 121.476,189.588C121.181,191.541 121.146,193.516 120.957,195.476C120.864,196.445 120.918,197.41 120.821,198.371C120.775,198.839 121.16,199.578 120.423,199.706C119.672,199.836 118.784,200.043 118.21,199.197C117.484,198.129 116.719,197.085 116.05,195.982C114.877,194.051 113.761,192.087 112.629,190.133C111.835,188.76 111.938,188.561 113.52,188.394C113.76,188.368 114.004,188.39 114.58,188.39Z" style="fill:rgb(183,202,223);fill-rule:nonzero;"/>
        </g>
        <g transform="matrix(2.96266,0,0,2.96266,75.2746,152.16)">
            <path d="M177.8,71.963C176.703,72.921 175.687,73.748 174.739,74.65C172.781,76.512 170.875,78.428 169.136,80.499C168.692,81.031 168.34,81.011 167.856,80.607C165.884,78.951 163.82,77.401 162.221,75.34C161.803,74.802 161.886,74.685 162.523,74.512C166.562,73.42 170.64,72.564 174.803,72.109C175.748,72.005 176.677,71.798 177.8,71.963Z" style="fill:rgb(183,202,223);fill-rule:nonzero;"/>
        </g>
        <g transform="matrix(2.96266,0,0,2.96266,75.2746,152.16)">
            <path d="M247.058,102.201C248.438,103.686 249.951,104.963 249.713,107.333C249.471,109.727 249.64,112.166 249.67,114.583C249.68,115.396 249.475,115.629 248.611,115.437C246.594,114.993 246.663,114.93 246.848,112.894C247.135,109.741 247.554,106.576 247.065,103.395C247.006,103.006 247.058,102.601 247.058,102.201Z" style="fill:rgb(183,202,223);fill-rule:nonzero;"/>
        </g>
        <g transform="matrix(2.96266,0,0,2.96266,75.2746,152.16)">
            <path d="M134.522,100.227C132.785,100.352 131.403,99.914 129.996,99.765C128.207,99.577 126.43,99.294 124.646,99.062C124.327,99.022 123.956,99.055 123.833,98.688C123.727,98.371 124.032,98.188 124.223,97.996C125.381,96.819 126.542,95.645 127.708,94.477C127.95,94.235 128.199,93.839 128.569,94.316C130.244,96.467 132.334,98.217 134.522,100.227Z" style="fill:rgb(183,202,223);fill-rule:nonzero;"/>
        </g>
        <g transform="matrix(2.96266,0,0,2.96266,75.2746,152.16)">
            <path d="M178.82,158.223C178.82,156.696 178.812,155.171 178.827,153.645C178.829,153.348 178.669,152.883 179.057,152.8C179.685,152.662 180.161,153.172 180.699,153.407C181.039,153.557 180.996,153.833 180.869,154.119C180.259,155.502 179.652,156.888 179.045,158.271C178.97,158.256 178.895,158.239 178.82,158.223Z" style="fill:rgb(183,202,223);fill-rule:nonzero;"/>
        </g>
        <g transform="matrix(2.96266,0,0,2.96266,75.2746,152.16)">
            <path d="M222.08,171.377C222.834,171.685 223.484,171.956 224.139,172.216C224.548,172.379 224.714,172.609 224.452,173.032C224.124,173.566 224.149,174.6 223.568,174.608C222.897,174.621 222.793,173.627 222.554,173.034C222.367,172.57 221.996,172.147 222.08,171.377Z" style="fill:rgb(183,202,223);fill-rule:nonzero;"/>
        </g>
        <g transform="matrix(2.96266,0,0,2.96266,75.2746,152.16)">
            <path d="M216.066,199.717C216.677,198.244 217.037,198.259 218.642,199.717L216.066,199.717Z" style="fill:rgb(183,202,223);fill-rule:nonzero;"/>
        </g>
        <g transform="matrix(2.96266,0,0,2.96266,75.2746,152.16)">
            <path d="M220.557,195.392C220.308,195.27 220.066,195.128 219.807,195.034C218.725,194.644 218.846,194.053 219.579,193.291C220.077,193.93 220.518,194.562 220.547,195.402L220.557,195.392Z" style="fill:rgb(183,202,223);fill-rule:nonzero;"/>
        </g>
        <g transform="matrix(2.96266,0,0,2.96266,75.2746,152.16)">
            <path d="M220.547,195.402C220.58,195.418 220.613,195.432 220.646,195.446C220.618,195.428 220.587,195.409 220.557,195.392L220.547,195.402Z" style="fill:rgb(183,202,223);fill-rule:nonzero;"/>
        </g>
        <g transform="matrix(2.96266,0,0,2.96266,75.2746,152.16)">
            <path d="M287.743,227.33C285.66,227.967 283.86,228.287 282.344,228.287C280.763,228.287 279.313,227.854 277.993,226.991C276.673,226.126 275.679,224.99 275.008,223.581C274.337,222.172 274.002,220.582 274.002,218.81C274.002,216.168 274.727,213.964 276.177,212.197C277.627,210.431 279.868,209.547 282.899,209.547C284.295,209.547 285.844,209.74 287.544,210.125L287.544,212.847C285.729,212.308 284.251,212.039 283.11,212.039C281.305,212.039 279.946,212.718 279.034,214.078C278.12,215.438 277.664,217.048 277.664,218.909C277.664,220.924 278.178,222.553 279.205,223.797C280.232,225.041 281.567,225.664 283.209,225.664C284.676,225.664 286.188,225.284 287.743,224.525L287.743,227.33Z" style="fill:rgb(8,91,151);fill-rule:nonzero;"/>
        </g>
        <g transform="matrix(2.96266,0,0,2.96266,75.2746,152.16)">
            <rect x="292.724" y="201.828" width="3.25" height="26.046" style="fill:rgb(8,91,151);fill-rule:nonzero;"/>
        </g>
        <g transform="matrix(2.96266,0,0,2.96266,75.2746,152.16)">
            <path d="M309.615,225.845C311.237,225.845 312.495,225.243 313.389,224.037C314.282,222.831 314.729,221.122 314.729,218.909C314.729,216.685 314.279,214.976 313.38,213.781C312.481,212.586 311.226,211.989 309.615,211.989C308.004,211.989 306.752,212.586 305.859,213.781C304.965,214.976 304.518,216.685 304.518,218.909C304.518,221.122 304.965,222.831 305.859,224.037C306.752,225.243 308.004,225.845 309.615,225.845ZM309.624,228.287C307.917,228.287 306.434,227.937 305.174,227.238C303.914,226.539 302.915,225.438 302.177,223.936C301.439,222.434 301.071,220.758 301.071,218.909C301.071,217.17 301.406,215.555 302.078,214.063C302.75,212.572 303.726,211.446 305.009,210.687C306.291,209.928 307.829,209.547 309.624,209.547C311.33,209.547 312.816,209.894 314.082,210.588C315.348,211.281 316.347,212.382 317.079,213.89C317.811,215.398 318.176,217.071 318.176,218.909C318.176,220.67 317.835,222.296 317.153,223.788C316.47,225.279 315.493,226.401 314.222,227.155C312.951,227.909 311.418,228.287 309.624,228.287Z" style="fill:rgb(8,91,151);fill-rule:nonzero;"/>
        </g>
        <g transform="matrix(2.96266,0,0,2.96266,75.2746,152.16)">
            <path d="M322.581,227.247L322.581,224.262C324.703,225.317 326.551,225.845 328.124,225.845C329.047,225.845 329.82,225.592 330.441,225.085C331.062,224.579 331.373,223.946 331.373,223.186C331.373,222.713 331.219,222.25 330.911,221.799C330.602,221.348 329.891,220.891 328.778,220.428L326.878,219.619C325.412,219.013 324.344,218.309 323.671,217.505C323,216.713 322.664,215.739 322.664,214.583C322.664,213.141 323.188,211.942 324.235,210.984C325.283,210.026 326.833,209.547 328.885,209.547C329.889,209.547 331.13,209.685 332.608,209.96L333.287,210.092L333.287,212.813C331.464,212.264 330.011,211.989 328.929,211.989C327.879,211.989 327.095,212.215 326.576,212.666C326.057,213.118 325.797,213.651 325.797,214.268C325.797,214.752 325.974,215.187 326.327,215.573C326.668,215.969 327.285,216.36 328.177,216.745L329.748,217.406C331.852,218.298 333.19,219.178 333.763,220.048C334.336,220.917 334.623,221.864 334.623,222.888C334.623,223.867 334.356,224.775 333.823,225.612C333.289,226.448 332.503,227.103 331.464,227.577C330.425,228.049 329.267,228.287 327.992,228.287C326.507,228.287 324.703,227.94 322.581,227.247Z" style="fill:rgb(8,91,151);fill-rule:nonzero;"/>
        </g>
        <g transform="matrix(2.96266,0,0,2.96266,75.2746,152.16)">
            <path d="M342.507,216.987L350.64,216.987C350.64,215.195 350.28,213.914 349.562,213.144C348.843,212.374 347.923,211.989 346.803,211.989C345.524,211.989 344.525,212.404 343.806,213.234C343.087,214.065 342.654,215.315 342.507,216.987ZM353.807,227.297C351.597,227.957 349.706,228.287 348.132,228.287C345.309,228.287 343.089,227.349 341.471,225.474C339.853,223.599 339.043,221.386 339.043,218.834C339.043,217.152 339.4,215.552 340.115,214.034C340.829,212.517 341.763,211.39 342.918,210.653C344.073,209.916 345.431,209.547 346.994,209.547C349.091,209.547 350.765,210.29 352.015,211.774C353.264,213.259 353.889,215.48 353.889,218.438L353.873,219.428L342.359,219.428C342.539,221.012 342.886,222.232 343.401,223.09C343.917,223.948 344.603,224.616 345.46,225.095C346.317,225.573 347.408,225.812 348.73,225.812C349.402,225.812 350.072,225.754 350.739,225.639C351.406,225.523 352.428,225.218 353.807,224.724L353.807,227.297Z" style="fill:rgb(8,91,151);fill-rule:nonzero;"/>
        </g>
        <g transform="matrix(2.96266,0,0,2.96266,75.2746,152.16)">
            <path d="M359.283,227.874L359.283,209.96L362.533,209.96L362.533,213.31C363.148,212.11 363.949,211.184 364.933,210.529C365.917,209.875 366.987,209.547 368.141,209.547C368.471,209.547 368.818,209.575 369.181,209.63L369.181,212.665C368.63,212.478 368.136,212.385 367.696,212.385C366.673,212.385 365.73,212.69 364.867,213.301C364.003,213.912 363.226,214.829 362.533,216.051L362.533,227.874L359.283,227.874Z" style="fill:rgb(8,91,151);fill-rule:nonzero;"/>
        </g>
        <g transform="matrix(2.96266,0,0,2.96266,75.2746,152.16)">
            <path d="M396.117,227.33C394.034,227.967 392.235,228.287 390.72,228.287C389.138,228.287 387.688,227.854 386.368,226.991C385.049,226.126 384.054,224.99 383.383,223.581C382.712,222.172 382.377,220.582 382.377,218.81C382.377,216.168 383.102,213.964 384.552,212.197C386.002,210.431 388.243,209.547 391.274,209.547C392.67,209.547 394.219,209.74 395.92,210.125L395.92,212.847C394.104,212.308 392.626,212.039 391.484,212.039C389.681,212.039 388.321,212.718 387.408,214.078C386.495,215.438 386.039,217.048 386.039,218.909C386.039,220.924 386.553,222.553 387.58,223.797C388.607,225.041 389.942,225.664 391.584,225.664C393.052,225.664 394.563,225.284 396.117,224.525L396.117,227.33Z" style="fill:rgb(8,91,151);fill-rule:nonzero;"/>
        </g>
        <g transform="matrix(2.96266,0,0,2.96266,75.2746,152.16)">
            <path d="M408.226,225.845C409.847,225.845 411.104,225.243 411.998,224.037C412.892,222.831 413.339,221.122 413.339,218.909C413.339,216.685 412.889,214.976 411.99,213.781C411.091,212.586 409.836,211.989 408.226,211.989C406.614,211.989 405.362,212.586 404.469,213.781C403.575,214.976 403.128,216.685 403.128,218.909C403.128,221.122 403.575,222.831 404.469,224.037C405.362,225.243 406.614,225.845 408.226,225.845ZM408.233,228.287C406.527,228.287 405.044,227.937 403.783,227.238C402.523,226.539 401.524,225.438 400.787,223.936C400.049,222.434 399.681,220.758 399.681,218.909C399.681,217.17 400.017,215.555 400.688,214.063C401.359,212.572 402.336,211.446 403.618,210.687C404.901,209.928 406.439,209.547 408.233,209.547C409.939,209.547 411.426,209.894 412.691,210.588C413.957,211.281 414.956,212.382 415.688,213.89C416.42,215.398 416.786,217.071 416.786,218.909C416.786,220.67 416.445,222.296 415.763,223.788C415.08,225.279 414.103,226.401 412.832,227.155C411.561,227.909 410.027,228.287 408.233,228.287Z" style="fill:rgb(8,91,151);fill-rule:nonzero;"/>
        </g>
        <g transform="matrix(2.96266,0,0,2.96266,75.2746,152.16)">
            <path d="M421.851,227.874L421.851,209.96L425.1,209.96L425.1,213.309C425.76,212.264 426.604,211.376 427.632,210.644C428.66,209.913 429.849,209.547 431.198,209.547C431.978,209.547 432.657,209.674 433.238,209.927C433.82,210.18 434.347,210.537 434.818,210.999C435.29,211.461 435.713,212.231 436.086,213.309C436.745,212.231 437.584,211.332 438.602,210.611C439.618,209.892 440.781,209.531 442.09,209.531C443.365,209.531 444.515,209.928 445.538,210.72C446.561,211.512 447.071,212.883 447.071,214.831L447.071,227.874L443.822,227.874L443.822,215.341C443.822,214.152 443.571,213.343 443.07,212.914C442.568,212.484 442.009,212.269 441.393,212.269C440.62,212.269 439.819,212.51 438.987,212.99C438.155,213.471 437.188,214.427 436.086,215.857L436.086,227.874L432.836,227.874L432.836,215.341C432.836,214.141 432.583,213.326 432.077,212.897C431.571,212.468 430.999,212.253 430.362,212.253C429.581,212.253 428.792,212.491 427.995,212.965C427.197,213.44 426.232,214.404 425.1,215.857L425.1,227.874L421.851,227.874Z" style="fill:rgb(8,91,151);fill-rule:nonzero;"/>
        </g>
        <g transform="matrix(2.96266,0,0,2.96266,75.2746,152.16)">
            <path d="M453.39,227.874L453.39,209.96L456.639,209.96L456.639,213.309C457.299,212.264 458.143,211.376 459.171,210.644C460.199,209.913 461.388,209.547 462.737,209.547C463.517,209.547 464.196,209.674 464.777,209.927C465.359,210.18 465.886,210.537 466.357,210.999C466.829,211.461 467.252,212.231 467.625,213.309C468.284,212.231 469.123,211.332 470.141,210.611C471.157,209.892 472.32,209.531 473.629,209.531C474.904,209.531 476.054,209.928 477.077,210.72C478.1,211.512 478.61,212.883 478.61,214.831L478.61,227.874L475.361,227.874L475.361,215.341C475.361,214.152 475.11,213.343 474.609,212.914C474.107,212.484 473.548,212.269 472.932,212.269C472.159,212.269 471.358,212.51 470.526,212.99C469.694,213.471 468.727,214.427 467.625,215.857L467.625,227.874L464.375,227.874L464.375,215.341C464.375,214.141 464.122,213.326 463.616,212.897C463.11,212.468 462.538,212.253 461.901,212.253C461.12,212.253 460.331,212.491 459.534,212.965C458.736,213.44 457.771,214.404 456.639,215.857L456.639,227.874L453.39,227.874Z" style="fill:rgb(8,91,151);fill-rule:nonzero;"/>
        </g>
        <g transform="matrix(2.96266,0,0,2.96266,75.2746,152.16)">
            <path d="M484.929,227.874L484.929,209.96L488.178,209.96L488.178,227.874L484.929,227.874ZM484.929,206.71L484.929,203.461L488.178,203.461L488.178,206.71L484.929,206.71Z" style="fill:rgb(8,91,151);fill-rule:nonzero;"/>
        </g>
        <g transform="matrix(2.96266,0,0,2.96266,75.2746,152.16)">
            <path d="M502.678,227.874C501.677,228.149 500.808,228.287 500.071,228.287C498.466,228.287 497.19,227.822 496.244,226.893C495.299,225.963 494.826,224.641 494.826,222.925L494.826,212.401L492.583,212.401L492.583,209.96L494.826,209.96L494.826,206.71L498.075,206.397L498.075,209.96L502.76,209.96L502.76,212.401L498.075,212.401L498.075,222.332C498.075,223.585 498.317,224.484 498.802,225.028C499.285,225.573 500.055,225.845 501.11,225.845C501.539,225.845 502.062,225.774 502.678,225.631L502.678,227.874Z" style="fill:rgb(8,91,151);fill-rule:nonzero;"/>
        </g>
        <g transform="matrix(2.96266,0,0,2.96266,75.2746,152.16)">
            <path d="M515.313,227.874C514.313,228.149 513.443,228.287 512.706,228.287C511.102,228.287 509.826,227.822 508.88,226.893C507.935,225.963 507.462,224.641 507.462,222.925L507.462,212.401L505.219,212.401L505.219,209.96L507.462,209.96L507.462,206.71L510.711,206.397L510.711,209.96L515.396,209.96L515.396,212.401L510.711,212.401L510.711,222.332C510.711,223.585 510.953,224.484 511.438,225.028C511.921,225.573 512.69,225.845 513.745,225.845C514.175,225.845 514.697,225.774 515.313,225.631L515.313,227.874Z" style="fill:rgb(8,91,151);fill-rule:nonzero;"/>
        </g>
        <g transform="matrix(2.96266,0,0,2.96266,75.2746,152.16)">
            <path d="M522.011,216.987L530.144,216.987C530.144,215.195 529.783,213.914 529.065,213.144C528.346,212.374 527.427,211.989 526.306,211.989C525.027,211.989 524.028,212.404 523.31,213.234C522.591,214.065 522.158,215.315 522.011,216.987ZM533.311,227.297C531.101,227.957 529.209,228.287 527.636,228.287C524.813,228.287 522.591,227.349 520.974,225.474C519.354,223.599 518.547,221.386 518.547,218.834C518.547,217.152 518.903,215.552 519.617,214.034C520.331,212.517 521.267,211.39 522.422,210.653C523.576,209.916 524.935,209.547 526.497,209.547C528.595,209.547 530.269,210.29 531.519,211.774C532.768,213.259 533.393,215.48 533.393,218.438L533.376,219.428L521.862,219.428C522.042,221.012 522.39,222.232 522.904,223.09C523.419,223.948 524.106,224.616 524.964,225.095C525.821,225.573 526.911,225.812 528.233,225.812C528.905,225.812 529.575,225.754 530.242,225.639C530.909,225.523 531.932,225.218 533.311,224.724L533.311,227.297Z" style="fill:rgb(8,91,151);fill-rule:nonzero;"/>
        </g>
        <g transform="matrix(2.96266,0,0,2.96266,75.2746,152.16)">
            <path d="M550.268,214.219C549.146,213.228 548.258,212.608 547.604,212.36C546.949,212.113 546.242,211.989 545.483,211.989C543.9,211.989 542.727,212.655 541.962,213.987C541.197,215.32 540.815,217.037 540.815,219.14C540.815,221.089 541.153,222.625 541.83,223.748C542.507,224.872 543.554,225.433 544.973,225.433C545.874,225.433 546.768,225.185 547.653,224.689C548.538,224.194 549.41,223.457 550.268,222.477L550.268,214.219ZM550.268,227.874L550.268,224.508C549.608,225.762 548.782,226.705 547.788,227.338C546.794,227.97 545.633,228.287 544.304,228.287C542.107,228.287 540.402,227.475 539.188,225.851C537.975,224.227 537.368,222.101 537.368,219.47C537.368,216.63 538.049,214.267 539.411,212.379C540.772,210.491 542.634,209.547 544.996,209.547C545.688,209.547 546.347,209.63 546.973,209.795C547.599,209.96 548.156,210.194 548.645,210.496C549.134,210.799 549.674,211.296 550.268,211.989L550.268,201.828L553.518,201.828L553.518,227.874L550.268,227.874Z" style="fill:rgb(8,91,151);fill-rule:nonzero;"/>
        </g>
        <g transform="matrix(2.96266,0,0,2.96266,75.2746,152.16)">
            <path d="M583.061,227.33C580.978,227.967 579.179,228.287 577.663,228.287C576.081,228.287 574.631,227.854 573.312,226.991C571.992,226.126 570.997,224.99 570.326,223.581C569.655,222.172 569.32,220.582 569.32,218.81C569.32,216.168 570.045,213.964 571.495,212.197C572.945,210.431 575.187,209.547 578.218,209.547C579.613,209.547 581.162,209.74 582.863,210.125L582.863,212.847C581.048,212.308 579.569,212.039 578.428,212.039C576.624,212.039 575.265,212.718 574.352,214.078C573.438,215.438 572.982,217.048 572.982,218.909C572.982,220.924 573.496,222.553 574.523,223.797C575.551,225.041 576.886,225.664 578.527,225.664C579.995,225.664 581.506,225.284 583.061,224.525L583.061,227.33Z" style="fill:rgb(8,91,151);fill-rule:nonzero;"/>
        </g>
        <g transform="matrix(2.96266,0,0,2.96266,75.2746,152.16)">
            <path d="M595.169,225.845C596.79,225.845 598.048,225.243 598.941,224.037C599.835,222.831 600.282,221.122 600.282,218.909C600.282,216.685 599.832,214.976 598.934,213.781C598.034,212.586 596.779,211.989 595.169,211.989C593.558,211.989 592.306,212.586 591.412,213.781C590.519,214.976 590.071,216.685 590.071,218.909C590.071,221.122 590.519,222.831 591.412,224.037C592.306,225.243 593.558,225.845 595.169,225.845ZM595.177,228.287C593.471,228.287 591.987,227.937 590.727,227.238C589.467,226.539 588.468,225.438 587.73,223.936C586.992,222.434 586.624,220.758 586.624,218.909C586.624,217.17 586.96,215.555 587.631,214.063C588.303,212.572 589.279,211.446 590.562,210.687C591.845,209.928 593.383,209.547 595.177,209.547C596.883,209.547 598.369,209.894 599.635,210.588C600.9,211.281 601.899,212.382 602.632,213.89C603.363,215.398 603.729,217.071 603.729,218.909C603.729,220.67 603.389,222.296 602.706,223.788C602.023,225.279 601.046,226.401 599.775,227.155C598.504,227.909 596.971,228.287 595.177,228.287Z" style="fill:rgb(8,91,151);fill-rule:nonzero;"/>
        </g>
        <g transform="matrix(2.96266,0,0,2.96266,75.2746,152.16)">
            <path d="M608.794,227.874L608.794,209.96L612.043,209.96L612.043,213.309C612.703,212.264 613.547,211.376 614.575,210.644C615.604,209.913 616.792,209.547 618.142,209.547C618.921,209.547 619.601,209.674 620.182,209.927C620.764,210.18 621.29,210.537 621.762,210.999C622.233,211.461 622.656,212.231 623.029,213.309C623.688,212.231 624.527,211.332 625.545,210.611C626.562,209.892 627.725,209.531 629.033,209.531C630.309,209.531 631.458,209.928 632.481,210.72C633.504,211.512 634.015,212.883 634.015,214.831L634.015,227.874L630.766,227.874L630.766,215.341C630.766,214.152 630.515,213.343 630.014,212.914C629.512,212.484 628.952,212.269 628.336,212.269C627.563,212.269 626.763,212.51 625.931,212.99C625.099,213.471 624.131,214.427 623.029,215.857L623.029,227.874L619.779,227.874L619.779,215.341C619.779,214.141 619.526,213.326 619.021,212.897C618.515,212.468 617.942,212.253 617.306,212.253C616.524,212.253 615.735,212.491 614.938,212.965C614.141,213.44 613.176,214.404 612.043,215.857L612.043,227.874L608.794,227.874Z" style="fill:rgb(8,91,151);fill-rule:nonzero;"/>
        </g>
        <g transform="matrix(2.96266,0,0,2.96266,75.2746,152.16)">
            <path d="M643.582,223.599C644.686,224.59 645.564,225.212 646.22,225.465C646.875,225.719 647.579,225.845 648.333,225.845C649.916,225.845 651.087,225.174 651.846,223.83C652.604,222.487 652.984,220.775 652.984,218.694C652.984,216.756 652.648,215.22 651.978,214.086C651.306,212.952 650.266,212.385 648.856,212.385C647.961,212.385 647.074,212.63 646.195,213.12C645.315,213.61 644.445,214.351 643.582,215.341L643.582,223.599ZM640.333,234.39L640.333,209.96L643.582,209.96L643.582,213.31C644.249,212.056 645.076,211.115 646.065,210.488C647.054,209.861 648.21,209.547 649.532,209.547C651.729,209.547 653.427,210.362 654.629,211.991C655.831,213.62 656.433,215.745 656.433,218.364C656.433,220.07 656.153,221.694 655.597,223.234C655.039,224.775 654.173,226.003 652.998,226.916C651.823,227.83 650.493,228.287 649.008,228.287C648.417,228.287 647.639,228.198 646.672,228.022C645.705,227.847 644.675,227.121 643.582,225.845L643.582,234.39L640.333,234.39Z" style="fill:rgb(8,91,151);fill-rule:nonzero;"/>
        </g>
        <g transform="matrix(2.96266,0,0,2.96266,75.2746,152.16)">
            <path d="M663.641,216.987L671.773,216.987C671.773,215.195 671.413,213.914 670.695,213.144C669.976,212.374 669.057,211.989 667.936,211.989C666.657,211.989 665.658,212.404 664.939,213.234C664.221,214.065 663.788,215.315 663.641,216.987ZM674.94,227.297C672.73,227.957 670.839,228.287 669.266,228.287C666.442,228.287 664.222,227.349 662.604,225.474C660.985,223.599 660.177,221.386 660.177,218.834C660.177,217.152 660.533,215.552 661.248,214.034C661.962,212.517 662.896,211.39 664.052,210.653C665.206,209.916 666.564,209.547 668.127,209.547C670.225,209.547 671.898,210.29 673.148,211.774C674.397,213.259 675.022,215.48 675.022,218.438L675.006,219.428L663.492,219.428C663.672,221.012 664.02,222.232 664.534,223.09C665.05,223.948 665.736,224.616 666.594,225.095C667.451,225.573 668.541,225.812 669.863,225.812C670.535,225.812 671.205,225.754 671.872,225.639C672.539,225.523 673.562,225.218 674.94,224.724L674.94,227.297Z" style="fill:rgb(8,91,151);fill-rule:nonzero;"/>
        </g>
        <g transform="matrix(2.96266,0,0,2.96266,75.2746,152.16)">
            <path d="M688.4,227.874C687.399,228.149 686.53,228.287 685.794,228.287C684.188,228.287 682.913,227.822 681.967,226.893C681.021,225.963 680.549,224.641 680.549,222.925L680.549,212.401L678.306,212.401L678.306,209.96L680.549,209.96L680.549,206.71L683.798,206.397L683.798,209.96L688.482,209.96L688.482,212.401L683.798,212.401L683.798,222.332C683.798,223.585 684.04,224.484 684.524,225.028C685.008,225.573 685.777,225.845 686.833,225.845C687.262,225.845 687.784,225.774 688.4,225.631L688.4,227.874Z" style="fill:rgb(8,91,151);fill-rule:nonzero;"/>
        </g>
        <g transform="matrix(2.96266,0,0,2.96266,75.2746,152.16)">
            <path d="M693.053,227.874L693.053,209.96L696.302,209.96L696.302,227.874L693.053,227.874ZM693.053,206.71L693.053,203.461L696.302,203.461L696.302,206.71L693.053,206.71Z" style="fill:rgb(8,91,151);fill-rule:nonzero;"/>
        </g>
        <g transform="matrix(2.96266,0,0,2.96266,75.2746,152.16)">
            <path d="M710.802,227.874C709.801,228.149 708.932,228.287 708.195,228.287C706.59,228.287 705.314,227.822 704.368,226.893C703.423,225.963 702.95,224.641 702.95,222.925L702.95,212.401L700.707,212.401L700.707,209.96L702.95,209.96L702.95,206.71L706.199,206.397L706.199,209.96L710.884,209.96L710.884,212.401L706.199,212.401L706.199,222.332C706.199,223.585 706.441,224.484 706.926,225.028C707.409,225.573 708.179,225.845 709.234,225.845C709.663,225.845 710.186,225.774 710.802,225.631L710.802,227.874Z" style="fill:rgb(8,91,151);fill-rule:nonzero;"/>
        </g>
        <g transform="matrix(2.96266,0,0,2.96266,75.2746,152.16)">
            <path d="M715.454,227.874L715.454,209.96L718.703,209.96L718.703,227.874L715.454,227.874ZM715.454,206.71L715.454,203.461L718.703,203.461L718.703,206.71L715.454,206.71Z" style="fill:rgb(8,91,151);fill-rule:nonzero;"/>
        </g>
        <g transform="matrix(2.96266,0,0,2.96266,75.2746,152.16)">
            <path d="M728.939,227.874L722.274,209.96L725.534,209.96L730.737,223.898L736.242,209.96L739.266,209.96L732.188,227.874L728.939,227.874Z" style="fill:rgb(8,91,151);fill-rule:nonzero;"/>
        </g>
        <g transform="matrix(2.96266,0,0,2.96266,75.2746,152.16)">
            <path d="M744.75,216.987L752.883,216.987C752.883,215.195 752.522,213.914 751.805,213.144C751.085,212.374 750.166,211.989 749.045,211.989C747.767,211.989 746.768,212.404 746.049,213.234C745.33,214.065 744.897,215.315 744.75,216.987ZM756.05,227.297C753.84,227.957 751.948,228.287 750.375,228.287C747.552,228.287 745.331,227.349 743.713,225.474C742.095,223.599 741.286,221.386 741.286,218.834C741.286,217.152 741.643,215.552 742.357,214.034C743.071,212.517 744.006,211.39 745.161,210.653C746.315,209.916 747.674,209.547 749.236,209.547C751.334,209.547 753.008,210.29 754.258,211.774C755.507,213.259 756.132,215.48 756.132,218.438L756.115,219.428L744.602,219.428C744.781,221.012 745.129,222.232 745.644,223.09C746.159,223.948 746.846,224.616 747.703,225.095C748.561,225.573 749.65,225.812 750.973,225.812C751.645,225.812 752.314,225.754 752.981,225.639C753.648,225.523 754.671,225.218 756.05,224.724L756.05,227.297Z" style="fill:rgb(8,91,151);fill-rule:nonzero;"/>
        </g>
    </g>
</svg>
